HIERARCHY
ROOT hip
{
	OFFSET 0.000000 0.000000 0.000000
	CHANNELS 6 Xposition Yposition Zposition Xrotation Zrotation Yrotation 
	JOINT abdomen
	{
		OFFSET 0.000000 3.422050 0.000000
		CHANNELS 3 Xrotation Zrotation Yrotation 
		JOINT chest
		{
			OFFSET 0.000000 8.486693 -0.684411
			CHANNELS 3 Xrotation Zrotation Yrotation 
			JOINT neck
			{
				OFFSET 0.000000 10.266162 -0.273764
				CHANNELS 3 Xrotation Zrotation Yrotation 
				JOINT head
				{
					OFFSET 0.000000 3.148285 0.000000
					CHANNELS 3 Xrotation Zrotation Yrotation 
					End Site
					{
						OFFSET 0.000000 3.148289 0.000000
					}
				}
			}
			JOINT lCollar
			{
				OFFSET 3.422053 6.707223 -0.821293
				CHANNELS 3 Yrotation Zrotation Xrotation 
				JOINT lShldr
				{
					OFFSET 3.285171 0.000000 0.000000
					CHANNELS 3 Zrotation Yrotation Xrotation 
					JOINT lForeArm
					{
						OFFSET 10.129278 0.000000 0.000000
						CHANNELS 3 Yrotation Zrotation Xrotation 
						JOINT lHand
						{
							OFFSET 8.486692 0.000000 0.000000
							CHANNELS 3 Zrotation Yrotation Xrotation 
							End Site
							{
								OFFSET 4.106464 0.000000 0.000000
							}
						}
					}
				}
			}
			JOINT rCollar
			{
				OFFSET -3.558935 6.707223 -0.821293
				CHANNELS 3 Yrotation Zrotation Xrotation 
				JOINT rShldr
				{
					OFFSET -3.148289 0.000000 0.000000
					CHANNELS 3 Zrotation Yrotation Xrotation 
					JOINT rForeArm
					{
						OFFSET -10.266159 0.000000 0.000000
						CHANNELS 3 Yrotation Zrotation Xrotation 
						JOINT rHand
						{
							OFFSET -8.349810 0.000000 0.000000
							CHANNELS 3 Zrotation Yrotation Xrotation 
							End Site
							{
								OFFSET -4.106464 0.000000 0.000000
							}
						}
					}
				}
			}
		}
	}
	JOINT lThigh
	{
		OFFSET 5.338403 -1.642589 1.368821
		CHANNELS 3 Xrotation Zrotation Yrotation 
		JOINT lShin
		{
			OFFSET -2.053232 -20.121670 0.000000
			CHANNELS 3 Xrotation Zrotation Yrotation 
			JOINT lFoot
			{
				OFFSET 0.000000 -19.300380 -1.231939
				CHANNELS 3 Xrotation Yrotation Zrotation 
				End Site
				{
					OFFSET 0.000000 -2.463878 4.653993
				}
			}
		}
	}
	JOINT rThigh
	{
		OFFSET -5.338403 -1.642589 1.368821
		CHANNELS 3 Xrotation Zrotation Yrotation 
		JOINT rShin
		{
			OFFSET 2.053232 -20.121670 0.000000
			CHANNELS 3 Xrotation Zrotation Yrotation 
			JOINT rFoot
			{
				OFFSET 0.000000 -19.300380 -1.231939
				CHANNELS 3 Xrotation Yrotation Zrotation 
				End Site
				{
					OFFSET 0.000000 -2.463878 4.653993
				}
			}
		}
	}
}
MOTION
Frames: 15
Frame Time: 0.050000
0.000000 43.528500 0.000000 0.000000 0.000000 0.000000 0.000000 0.000000 0.000000 0.000000 0.000000 0.000000 0.000000 0.000000 0.000000 0.000000 0.000000 0.000000 0.000000 0.000000 0.000000 0.000000 0.000000 0.000000 0.000000 0.000000 0.000000 0.000000 0.000000 0.000000 0.000000 0.000000 0.000000 0.000000 0.000000 0.000000 0.000000 0.000000 0.000000 0.000000 0.000000 0.000000 0.000000 0.000000 0.000000 0.000000 0.000000 0.000000 0.000000 0.000000 0.000000 0.000000 0.000000 0.000000 0.000000 0.000000 0.000000 0.000000 0.000000 0.000000 
20.110023 5.372009 0.000000 -90.001877 0.000000 0.000000 55.837872 -1.076946 -0.802210 23.389996 -2.581777 -10.658548 18.993979 0.000000 0.000000 5.995041 0.000000 0.000000 -2.173722 -13.023644 2.594900 -73.256203 -53.941772 -11.385162 -6.342824 -2.690120 17.371464 -3.554132 27.842436 5.226006 4.316600 -0.868392 -9.646682 73.058739 19.820763 34.325733 90.249771 27.673761 -49.391212 -36.225697 7.976932 19.239918 -19.889025 47.514500 -19.215124 47.102272 -34.340397 -9.622149 36.398251 24.029469 13.401920 -57.836082 -34.129169 39.664631 100.005409 0.601963 0.382849 32.766212 -0.907026 -26.897854 
20.110023 5.372009 -0.087752 -90.001884 0.000000 0.000000 56.194408 -1.079155 -0.811768 23.749624 -2.560242 -10.657171 18.493994 0.000000 0.000000 4.996936 0.000000 0.000000 -2.233959 -12.656219 2.092599 -73.526901 -53.984089 -11.164646 -6.342824 -2.690120 17.371466 -3.532542 27.669386 5.076375 4.316600 -0.868392 -9.646683 73.058739 19.820766 34.325737 90.728043 27.336946 -49.258530 -36.237709 9.739520 19.250172 -19.545727 47.373795 -18.950165 46.530216 -34.162235 -9.311813 36.677979 24.015177 13.322438 -57.644077 -34.031734 39.535534 100.005409 0.601963 0.382849 32.766212 -0.907026 -26.897856 
20.110023 5.372009 -0.175504 -90.001862 0.000000 0.000000 56.550999 -1.081304 -0.821340 24.109295 -2.538713 -10.655660 17.993895 0.000000 0.000000 3.997918 0.000000 0.000000 -2.290832 -12.288169 1.591233 -73.798172 -54.025806 -10.943553 -6.342824 -2.690120 17.371464 -3.510476 27.496359 4.926896 4.316600 -0.868392 -9.646682 73.058739 19.820763 34.325733 91.205963 27.000998 -49.123066 -36.249504 11.507182 19.260138 -19.204288 47.232018 -18.687151 45.960407 -33.981483 -9.004222 36.957661 24.000521 13.243032 -57.452541 -33.933937 39.406967 100.005409 0.601962 0.382849 32.766212 -0.907026 -26.897852 
20.110023 5.372009 -0.263257 -90.001877 0.000000 0.000000 56.907612 -1.083393 -0.830926 24.468985 -2.517191 -10.654010 17.493702 0.000000 0.000000 2.998138 0.000000 0.000000 -2.344346 -11.919537 1.090786 -74.069977 -54.066887 -10.721909 -6.342824 -2.690120 17.371464 -3.487935 27.323389 4.777571 4.316600 -0.868392 -9.646682 73.058739 19.820763 34.325733 91.683479 26.665960 -48.984810 -36.261086 13.279092 19.269823 -18.864697 47.089161 -18.426058 45.392879 -33.798176 -8.699406 37.237320 23.985525 13.163720 -57.261494 -33.835781 39.278942 100.005409 0.601963 0.382849 32.766212 -0.907025 -26.897852 
20.110023 5.372009 -0.351009 -90.001884 0.000000 0.000000 57.264256 -1.085423 -0.840526 24.828701 -2.495679 -10.652227 16.993433 0.000000 0.000000 1.997749 0.000000 0.000000 -2.394513 -11.550380 0.591246 -74.342293 -54.107342 -10.499703 -6.342824 -2.690120 17.371464 -3.464921 27.150459 4.628397 4.316600 -0.868392 -9.646682 73.058739 19.820763 34.325733 92.160637 26.331871 -48.843803 -36.272472 15.054415 19.279228 -18.526962 46.945267 -18.166906 44.827671 -33.612354 -8.397395 37.516930 23.970167 13.084490 -57.070930 -33.737274 39.151463 100.005409 0.601963 0.382849 32.766212 -0.907026 -26.897854 
20.110023 5.372009 -0.438761 -90.001877 0.000000 0.000000 57.620930 -1.087394 -0.850139 25.188440 -2.474177 -10.650309 16.493103 0.000000 0.000000 0.996902 0.000000 0.000000 -2.441339 -11.180744 0.092597 -74.615189 -54.147198 -10.276959 -6.342824 -2.690120 17.371464 -3.441438 26.977585 4.479371 4.316600 -0.868392 -9.646682 73.058739 19.820763 34.325733 92.637444 25.998785 -48.700092 -36.283665 16.832306 19.288359 -18.191072 46.800320 -17.909681 44.264786 -33.424038 -8.098207 37.796490 23.954456 13.005350 -56.880829 -33.638405 39.024509 100.005402 0.601962 0.382849 32.766212 -0.907026 -26.897852 
20.110023 5.372009 -0.526513 -90.001877 0.000000 0.000000 57.977612 -1.089304 -0.859765 25.548189 -2.452687 -10.648256 15.992736 0.000000 0.000000 -0.004251 0.000000 0.000000 -2.484835 -10.810681 -0.405178 -74.888573 -54.186417 -10.053677 -6.342824 -2.690120 17.371464 -3.417487 26.804762 4.330490 4.316600 -0.868392 -9.646682 73.058739 19.820763 34.325733 93.113907 25.666740 -48.553703 -36.294693 18.611921 19.297226 -17.857035 46.654346 -17.654388 43.704269 -33.233273 -7.801875 38.076000 23.938393 12.926304 -56.691216 -33.539200 38.898102 100.005409 0.601963 0.382849 32.766212 -0.907026 -26.897854 
20.110023 5.372009 -0.614265 -90.001877 0.000000 0.000000 58.334297 -1.091155 -0.869402 25.907932 -2.431210 -10.646067 15.492352 0.000000 0.000000 -1.005557 0.000000 0.000000 -2.525010 -10.440242 -0.902092 -75.162483 -54.225010 -9.829865 -6.342824 -2.690120 17.371464 -3.393069 26.631987 4.181752 4.316600 -0.868392 -9.646682 73.058739 19.820763 34.325733 93.590027 25.335783 -48.404648 -36.305550 20.392393 19.305828 -17.524839 46.507351 -17.401020 43.146141 -33.040092 -7.508422 38.355446 23.921978 12.847355 -56.502079 -33.439632 38.772228 100.005409 0.601963 0.382849 32.766212 -0.907026 -26.897854 
20.110023 5.372009 -0.702017 -90.001877 0.000000 0.000000 58.690998 -1.092945 -0.879051 26.267673 -2.409746 -10.643743 14.991968 0.000000 0.000000 -2.006863 0.000000 0.000000 -2.561874 -10.069470 -1.398162 -75.436928 -54.263000 -9.605545 -6.342824 -2.690120 17.371464 -3.368187 26.459270 4.033157 4.316600 -0.868392 -9.646682 73.058739 19.820763 34.325733 94.065781 25.005945 -48.252956 -36.316238 22.172863 19.314173 -17.194489 46.359356 -17.149576 42.590424 -32.844528 -7.217862 38.634827 23.905205 12.768499 -56.313423 -33.339725 38.646893 100.005409 0.601963 0.382849 32.766216 -0.907026 -26.897858 
20.110023 5.372009 -0.789770 -90.001884 0.000000 0.000000 59.047684 -1.094676 -0.888710 26.627405 -2.388299 -10.641286 14.491599 0.000000 0.000000 -3.008016 0.000000 0.000000 -2.595435 -9.698424 -1.893400 -75.711823 -54.300316 -9.380696 -6.342824 -2.690120 17.371464 -3.342843 26.286621 3.884702 4.316600 -0.868392 -9.646682 73.058739 19.820763 34.325733 94.541222 24.677292 -48.098686 -36.326794 23.952477 19.322258 -16.865982 46.210377 -16.900057 42.037136 -32.646629 -6.930226 38.914154 23.888086 12.689751 -56.125248 -33.239479 38.522106 100.005417 0.601963 0.382849 32.766212 -0.907025 -26.897854 
20.110023 5.372009 -0.877522 -90.001877 0.000000 0.000000 59.404350 -1.096346 -0.898380 26.987118 -2.366867 -10.638692 13.991269 0.000000 0.000000 -4.008863 0.000000 0.000000 -2.625706 -9.327147 -2.387825 -75.987274 -54.337044 -9.155348 -6.342824 -2.690120 17.371464 -3.317038 26.114025 3.736382 4.316600 -0.868392 -9.646682 73.058739 19.820763 34.325733 95.016312 24.349850 -47.941841 -36.337208 25.730381 19.330095 -16.539310 46.060421 -16.652452 41.486294 -32.446411 -6.645521 39.193409 23.870619 12.611105 -55.937553 -33.138889 38.397854 100.005409 0.601963 0.382849 32.766212 -0.907026 -26.897854 
20.110023 5.372009 -0.965274 -90.001877 0.000000 0.000000 59.760994 -1.097956 -0.908059 27.346798 -2.345454 -10.635963 13.490999 0.000000 0.000000 -5.009252 0.000000 0.000000 -2.652696 -8.955689 -2.881450 -76.263168 -54.373116 -8.929500 -6.342824 -2.690120 17.371464 -3.290776 25.941500 3.588200 4.316600 -0.868392 -9.646682 73.058739 19.820763 34.325733 95.491096 24.023663 -47.782467 -36.347511 27.505718 19.337677 -16.214466 45.909481 -16.406761 40.937935 -32.243938 -6.363775 39.472588 23.852800 12.532566 -55.750336 -33.037956 38.274136 100.005409 0.601963 0.382849 32.766212 -0.907026 -26.897854 
20.110023 5.372009 -1.053026 -90.001877 0.000000 0.000000 60.117611 -1.099506 -0.917748 27.706457 -2.324061 -10.633106 12.990805 0.000000 0.000000 -6.009032 0.000000 0.000000 -2.676418 -8.584105 -3.374292 -76.539574 -54.408562 -8.703166 -6.342824 -2.690120 17.371464 -3.264057 25.769041 3.440150 4.316600 -0.868392 -9.646682 73.058739 19.820763 34.325733 95.965553 23.698771 -47.620586 -36.357677 29.277641 19.345007 -15.891453 45.757591 -16.162977 40.392048 -32.039219 -6.084996 39.751698 23.834635 12.454139 -55.563591 -32.936691 38.150951 100.005409 0.601962 0.382849 32.766212 -0.907026 -26.897852 
20.110023 5.372009 -1.140778 -90.001862 0.000000 0.000000 60.474209 -1.100995 -0.927445 28.066069 -2.302687 -10.630110 12.490705 0.000000 0.000000 -7.008049 0.000000 0.000000 -2.696880 -8.212438 -3.866364 -76.816437 -54.443382 -8.476345 -6.342824 -2.690120 17.371464 -3.236885 25.596649 3.292231 4.316600 -0.868392 -9.646682 73.058739 19.820763 34.325733 96.439682 23.375223 -47.456230 -36.367748 31.045315 19.352083 -15.570263 45.604759 -15.921100 39.848694 -31.832319 -5.809206 40.030720 23.816116 12.375820 -55.377338 -32.835102 38.028316 100.005409 0.601963 0.382849 32.766212 -0.907025 -26.897852 
